<svg xmlns="http://www.w3.org/2000/svg" xmlns:xlink="http://www.w3.org/1999/xlink" fill-rule="evenodd" stroke-linejoin="round" stroke-miterlimit="1" clip-rule="evenodd" version="1" viewBox="0 0 478 399">
  <path fill="#1c171b" fill-rule="nonzero" d="M127 52h-1c-8 1-15 4-22 8-4 2-9 4-12 8-2 1-4 5-5 7 0 2 3 0 6-4l10-7c8-5 16-9 25-10 3-1 2-2-1-2zm8 4h-1c0 1 1 2 2 0h-1zm10 1v0zm5 1h-2c0 1 2 2 3 1l1 2h8c0-1-2-2-5-2l-3-1h-2zm-11 0h-1c1 1 1 2 2 0h-1zm-11 2l-1 1 3 1-2-2zm-11 2l-1 1h2l-1-1zm-1 1zm50 1l1 4c2 1 2 1-2 3-4 1-5 2-3 2 1 2 1 4 4 3l4 1c1 1 1 2-2 2l-6-1-11-2c-3 0-5 1-4 3h6l5 2 6 1h2c1-1 7 0 7 1 1 1 1 2 4 2 4 0 3-1 2-4h4l2 3c4 3 4 3 5 1 0-1 0-2-2-3l-6-6c-4-4-4-5-4-3l-2 1c-2-1-6 0-4-3 2-2 1-4-2-6l-4-1zm-5 0c-1 0-2 0-2 2-1 2-2 2-3 1-2-2-11-3-14-2h-3c-1-1-3 1-3 2 2 0 5-2 6 1l4 1h5c4-1 5 7 6 4 0-3 6-1 6-5l-2-4zm-15 2c1 0 2 1 0 1v-1zm-19 0h-1l-1 2 2-1v-1zm7 6v1c0 2 1 2 2 2l3 1 2-1h2l1-1-4-1a25 25 0 0 1-6-1zm-4 0l-5 2-5 1c-2 1 0 3 1 5 1-2 2-4 4-4 3 0 6-2 6-3l-1-1zm36 1h2l-2 1v-1zm-83 2l-1 3 1 2 1-1 1-1c1-1 0-2-1-2l-1-1zm96 2v1c0 2-3 2-4 1 0-1 3-3 4-2zm-86 0v1h1l-1-1zm44 1c-2 1-7 1-2 2s6 2 8 4l3 2 1 1h-8c-8-3-14-2-16 2-2 3-1 5 2 8 2 2 2 2 6 2s8-2 9-5c2-3 3-4 4-2l1 2c2-1 7-2 4-5-2-2 3-1 5 0s2 2 1 2c-2-1-4 0-4 1l-1 2c-2 1-2 1-1 3l2 1c2-1 7-2 8-1l2 1c1 0 1-1-1-3-3-4-3-5 0-3 2 2 10 3 13 1 3 0 4 1 5 5-4-1-6-2-9 0l3 1 5 2h3c2-1 2-2 0-4l-1-3c2-2 4-1 4 1l6 6c4 1 4 1 4-1 1-2 0-4-1-2s-2 1-4-3c-1-2-3-4-3-7v-2c-2 1-2 8-5 3 0-2-2-3-2 0 0 1-1 3-2 1 0-2-2-2-8-2-3 1-4 0-5-1l-2-1-16-4v-2c1-2 1-2-1-2l-3 1-3-1h-1zm-24 1l-2 1c0 2-2 4-1 5l5-6h-2zm-38 0h-1c1 1 1 2 2 0h-1zm52 1l-4 2 3-1 2-1h-1zm-37 1l-1 1c0 2-4 5-5 2H67c-7 1-10 2-10 4l16 5 11 3c6 3 8 4 9 3l3 1c1 3 1 2 3 0 1-2 1-2 3-2h3c2-2-3-5-5-6-5-2-7-5-4-6 2-1 2-2 1-3s-3 0-3 2c0 1-1 3-3 3v-6l-1-1zm12 2c-1 0-5 5-1 3 2-1 3 0 1-4zm19 2h-1c-2 1-3 6-3 7v8l-6-3c0-2-2-2-3-1-1 2 6 6 10 6 3 0 5 4 8 4 4 1 5 2 5 3 0 2-2 3-3 1l-4-1c-2-2-4-2-5 0-1 1-2 0-2-1l-4-3c-1-3-3-3-3 0 1 3 1 3 3 3s2 2 4 3l3 2c1 2 2 2 12 3h14l-10-3c-2 0-3-2-3-5v-3l3 3c0 2 1 2 2 2v-3c-2-1-1-2 3-2l4-1-3-2c-1-2-1-2-5 0l-7 2c-3 1-4 0-6-2-3-4-4-11-3-16v-1zm-13 0l-1 1-1 4c0 3 3-1 3-3l-1-2zm-33 0l3 2v1l-5-1 2-2zm53 2c2 0 3 1 3 3h-5c-1-1 0-2 1-3h1zm-44 0l2 1 6 2 5 2-2 1c-5 0-8-1-10-3h-3c-2 0-2-1 0-2l2-1zm107 1l-1 1c-2 0-3 1-1 2l2 2 1 2c2-1 4 1 4 3l1 1c3-1 1-7-3-10l-3-1zm-80 2v0zm33 6l-1 1c-2 2-2 2-1 3 3 2 6-1 4-3l-2-1zm-61 3l-1 1c-1 1 0 2 3 4l4 6a7164 7164 0 0 1 13 36c2 2 2 4 2 12 0 13 3 29 6 44 3 9 10 19 16 28l19 23c12 9-4-4-5-8-20-20-29-52-33-83l-1-15c-1 0-2-2-2-5-2-11-6-21-11-31l-3-5-4-4-3-2v-1zm116 1l-1 1c0 2-3 0-4 2s-7-1-3 3c2 2 2 3 2 5-1 2-3 1-5 3 0 1 3 4 6 4 2 0-1-3 2-4 2 0 3-1 3-2 1-1 2-1 2 1-1 2 1 6 4 10l4 5 2 2c5 3 5 1 1-4l-3-4-1-2c-2-2-3-6-4-9l-1-5-4-6zm-26 1c0 1 2 2 2 0h-2zm-20 0c-3 0-3 2 0 2l8 2c6 0-5-4-8-4zm18 0l-2 2c-3 2-2 5 3 7 2-1-1-5-1-7v-2zm13 1c-2 0-4 1-3 2h3c1-1 3-1 1-2h-1zm13 3c1 0-1 9-3 6l3-6zm-20 1v1l3 3 3 3c1-2 1-3-2-4l-4-3zm10 0c-2 2 0 8 4 5 1-1-3-5-4-5zm-38 1c-2 0-3 4 1 2v-1l-1-1zm-6 1l-1 1h2l-1-1zm12 0c-2 0-3 1-3 2h3v-2zm-33 2v2c-2 0-2-2 0-2zm45 0l-3 4-1 4 5 4c3 3 3 4 5 3 1-1 1-2-1-3l-1-3c2-2 8 0 11 1 3 0 6 5 6 7-1 2 0 1 1 0 3-3 4 0 7 1l2 1c2 0 1-3 0-5-2-2 2 1 1-3 0-2 0-3-2-3l-1 3c0 4-1 5-4 2l-5-2-1-1c1-1 1-2-1-2l-8-5c-2-2-3-1-3 1s-3 4-5 3c-2 0-1-2 0-2v-4l-2-1zm-58 3v0zm40 0v2l1-1-1-1zm5 1l-2 1s3 1 3-1h-1zm-4 3l-2 1c-2 1-2 5 0 5v-1c-2-2 0-3 2-1l3 1v1c0 2-1 2-2 1l-1-1-2 5c0 2-2 2-3 0l-3-1-2-1c0-1 0-2 2-2l3-1-1-1h-3l-4-1c-2 0-2 0-1 1v2l3 4 4 2h3c1 2 1 2 3 1l3-1 1-1 2-4 1-3-3-3-3-2zm39 1h-1 1zm-64 0l1 2c2 1 3 6 5 4 1-1 0-3-2-3-1-1-2-3-4-3zm-12 1c-1 1 0 3 2 2l-2-2zm65 2h-1c1 2 3 1 3 4-1 3 3 6 7 4l-2-1c-2-1-2-2-2-3 0-2 0-3-2-3l-3-1zm23 0v1h1l-1-1zm-35 1l-4 4-2 5-1 5v3c3 1-2 2-4 2-1 1 1 4 3 5 4 1 5 1 3-1s-2-2 2-3c3 0 3 0 3-3 0-2-1-2-2-2-1-1-4-3-3-4h3c3-1 4-1 5 1l4 2 3 1c0 1 3 4 4 3s-2-4-5-6l-4-2-1-1-3-2c-2-1-2-1-1-4v-3zm50 1c-2 0-1 1 2 3l6 4c3 2 5 2 4 1-3-3-7-6-12-8zm-40 1v2l-3 1c-3 0-3 1-1 3 2 1 4 0 5-2v-3l-1-1zm30 3l-2 3 1 4c2 3 1 0 1-3v-4zm-42 2l1 1c0 1-2 2-2 0-1 0 0-2 1-1zm-41 0l-1 1h1v-1zm69 0l-3 3 3 1 2 1c0 2 1 2 2 2 2 0 1-3-1-4l-2-2-1-1zm28 2l2 5 12 11c5 2 9 7 14 11l10 9c1 2 4 3 5 6l4 3 2 1-10-13-10-10-5-6s-2-2-2 0c1 2-3-2-5-3-3-1-12-8-12-10l-5-4zm-41 0l2 2 1 3 1 3c1 2 2 3 2 1-1-1 0-2 1-3s1-1-3-4l-4-2zm-41 0l-1 2h2v-2h-1zm-9 2v3c1-1 2-2 0-3zm72 2c-2 0-2 1 0 3 2 3 3 2 2-1l-2-2zm13 2l-1 1c-1 2-3-1-5 0s-2 2 0 3h7c5 0 6-1 1-3l-2-1zm-76 1v1h1l-1-1zm31 1c0 1 1 2 1 0h-1zm66 1v1l1 1v-1l-1-1zm-89 1l-1 1h2l-1-1zm27 0c-2 0-4 3-3 4 1 2 2 2 2 0l2-1c2 0 1-2 0-3h-1zm25 1c0 1 2 5 5 5 1 0 1-2-1-3l-4-2zm15 1l-2 1c-1 1 0 2 2 2 4 1 4 1 1 3-5 2-4 4 0 3h8c2-1 4 0 8 5l7 6 5 5 1 1c2 0 7 2 9 5l3 2c2 0 9 5 9 7l-1 1c-1 0-2 0-1 1 1 2 1 3-2 3l-2 1h2c2 0 3 1 1 2-1 1-2 1-5-1l-2-4c1-2-5-8-8-9-2 0-3-2-3-3l-4-2-4-2c-2-2-4-3-7-3l-3-2-3-1c-3-1-6-2-5-3l-6-6-3 1c-3 2-3 2-3 0s0-2 2-3c2 0 2-1 0-1-2-2-6 0-5 1l-2 1-2 1h-2l-1-1-1-2c-1 0-2 2-1 3v1l-1 2h9c0 1 2 2 5 2 5 0 9 1 7 2l1 2 4 2 6 3 4 2-3 1c0 2 3 2 4 4l12 9c4 3 6 3 6 1l-1-1-3-2-4-3c-5-3-10-7-9-8s3 0 6 2l5 4 1 1 6 2 1 2 2 4 5 5 6 4 3 3c1 2 1 2 3 2 1-1 1-1 1 1l3 2 7 4 8 3 6 3c4 1 5 1 2-4-2-4-4-5-6-2h-4c-4 0-9-3-10-4 0-2 0-2 3-1 3 2 4 2 10 1 4-2 6-3 3-3l-3-3-8-9-7-8c-2-3-3-3-3 0 1 3 6 9 14 16 4 3 4 3 3 4-2 2-5 2-6 0s0-3 1-1h2l-2-2-4-2-2-3-4-5-4-5c-1-4-7-10-10-11l-6-4c-2-1-3-3-4-2-2 0-9-7-9-9s-2-5-3-5c-2 0-10-4-11-6l-1-2h-6-3l-2-1zm-69 0v3h1l-1-3zm64 1c-2 0-2 2 0 3l1 1c1-2 0-4-1-4zm-30 1l-4 2h3c3 0 4 0 3-1l-2-1zm-4 2zm-20-2l-1 1c-2 1-5-2-3 3l2 2 2-6zm-21 0h-1v1h1v-1zm85 1l7 3h-3c-3-1-5-2-4-3zm-24 1l-1 1c1 1 2 0 2-1l-1-1zm-53 0c0 1 0 2 1 1l-1-1zm44 2l-1 1 1 1 1-1-1-1zm-41 4h-1c0 1 1 2 2 1l-1-1zm88 1l6 5-4-3c-3-1-3-2-2-2zm-45 1v2c1 2 2 2 2 0l-2-2zm37 0l-1 1 1 2c2 1 3 0 2-1 0-2-1-2-2-2zm-82 1h-1v2c1 2 1 2 1 0v-2zm78 3l-2 1h2c3 0 3 0 1-1h-1zm7 0v1l2 2h5l-5-3h-2zm-32 1v1h2l-2-1zm13 1c-1 0-1 1 1 1l1-1h-2zm-79 2l-1 4v9c2 4 2 4 1-2v-7-4zm14 1c-2 1-1 3 2 6l3 2-3-6-2-2zm61 0l-1 1 1 1 1-1-1-1zm7 3h-2c-2 1-1 2 2 3l3 3 8 11h1c2 0 3 3 2 4-1 2-5-2-6-3l-2-1h-3c-1 1-1 1-4-1l-4-5c-1-2-2-2-3-2l-2-1-9-4c-1 1-3 0-5-1l-5-2 1 2 3 2 4 2c2 2 3 3 5 3l2 2 3 2c2 1 2 2 2 3v3l2-1h3c5 1 6 3 6 5l1 2h1l3 3c4 1 6 4 4 5-1 0-10-5-13-9-2-2-3-4-6-2-2 2-2 2 0 3 3 2 7 2 8 6-1 3-5 1-10-4l-7-5-4-3-3-2-3-1c-2 0 0 1 3 3 2 1 3 2 3 4 0 3 7 4 10 5 1 1 1 2-1 3-5 0-1 5-9-3-6-7-9-8-9-5l4 4 3 3-4 1-3 1c0 1 4 3 8 2l4 1c1 1 2 2 5 2l5 1h2l10 1c3 2 3 2 2 0 0-4 10-1 13 0l1-2 3-1 7 2 3-1c1 0 3-1 2-3l-3-3c-3-6-1-5 4 1 1 2 2 2 3 2 2-1 5 2 2 4l-2 2c5 6 10 11 17 15l12 6c3 0 5 3 8 2 2-1 3 1 0 3l-5 1-5-1c-11-7-20-14-29-22-2-2-3-5-6-2-3 2 1 3 3 6l9 8c1 2 10 7 11 7 3 1 5 3 8 3 2 0 3 0 2 1 0 3-8 1-15-4-6-3-18-14-19-16 0-2-7-4-8-3-2 1-2 1 1 5l8 10-11-12c0-1-1-2-7-4l-4 1-3 2c-3 1-3 1-6-2-4-2-6-3-6-1h-3c-3 0-3 0 0 3 2 2 5 4 5 2 0-1 1-1 3 1l4 3c4 3 8 6 13 7l-4-4c-5-4-7-6-5-6l6 4c6 6 9 7 12 7l5 2c5 2 5 2 4 0 0-2 0-2 3 0l6 3c3 0 7 4 6 5-2 1-12 0-16-2l-8-2c-7-1-11-2-16-6l-6-3c-8-3-16-8-23-13-3-3-2-3 3 0l4 2c1 0 0-2-3-4-2-3-4-3-4-2l-5-1c-3-2-5-1-2 1 2 1 3 5 3 7 0 3 5 7 16 14 13 8 14 9 18 13l4 4v-3c0-3 2 0 3 3 0 1 0 2-2 2s-2 0 0 2l4 4c2 3 2 3 2 1l1-3-2-3c-5-3 6-1 8 2h2l-4-4c-1 1-5-3-5-5 0-1 2-1 5 2l6 2c6 1 12 3 17 7l4 2 3 1v-1c-3-2 1-1 5 1 3 2 5 3 6 2 2 0 10 2 11 4s3 2 3 0c0-1 1-1 4 2l6 4 2 2c-5-1-8-3-2 1 3 3 6 3 4 0v-1-4l3-1c5 0 4-1-5-4a417 417 0 0 1-41-15 1985 1985 0 0 0 67 18 834 834 0 0 1-50-17 242 242 0 0 0 5 0c-13-4-22-8-19-9l3 1 16 5 18 7c26 9 39 14 43 14 1 0 1-1-1-3-4-4-4-5-15-11l-12-9-5-2-3-2-7-4c-2 0-3-1-3-2l-4-1c-5 0-19-8-33-19l-6-6c0-2 2-1 6 2a73 73 0 0 0 30 16l3 2 1-3c0-3 0-3-3-4a226 226 0 0 1-29-15c1-2-3-5-3-4v3c4 5-6-3-9-9l-4-1c-3 1-3 0-5-2-1-1-2-2-3-1l-2-1c-2-1-4-1-5-3l-3-2-5-4-2-2-5-5-8-6zm-94 1v1l-1 1 1 1v-2-1zm48 0l1 3c2 2 3 2 4 1 2-1 1-2-2-3l-3-1zm-17 6l-1 1v2c2 1 2 0 1-2v-1zm100 2l2 2c2 2 4 2 4 1l-6-3zm-76 0v2l1 2v-3l-1-1zm42 2v0zm-64 1l2 2 3 1c0-1-3-3-5-3zm30 0c-1 0-2 1 0 2l2-1-2-1zm-45 1l1 5v5l1 4 2 2-3-14-1-2zm24 1v1l-2 2 1 2c3 2 5 2 3-1l-1-3-1-1zm-40 0v0zm72 0l-1 1h2l-1-1zm65 1l-1 2 5 1c0-2-2-3-4-3zm-81 1h-1c-1 1 4 6 6 4 0-2-3-4-5-4zm21 2v1c1 3 4-1 0-1zm-25 1l-2 1c-1 0-2 2-1 3s1 1 3-1v-3zm58 3c1 0 5 4 5 6l1 2c5 4-11-2-7-8h1zm-68 1c-1 0 0 3 2 5v-3l-2-2zm85 0v1h1l-1-1zm-71 1h-1c-1 1 0 1 2 3l4 2v-1l-5-4zm55 0v0zm36 0c2 0 4 2 4 4 0 3 0 3-3 1-2-2-3-5-1-5zm-141 3v0zm48 1l-3 3h1c2 0 4-3 3-3h-1zm-17 0l-2 1c-2 2 2 0 2 3 0 2 7 10 8 10l4 2c3 1 3 2 3 3 1 6 8 9 11 14h3c3 0 7 2 9 5 2 2 2 1 1-2-2-2-11-15-13-13-1 2-6-1-8-5l-2-2c-2 0-12-11-12-12s0-2-1-1l-2-1-1-2zm116 3v0zm-107 0v1c0 1 0 2 1 1l-1-1v-1zm63 1l3 2h-2l-1-2zm-80 1c-2 0-1 2 1 5s4 4 3 1l-4-6zm31 2l-1 1-2 2c-2 0-2 1-1 2l2 1 3-3-1-3zm-8 4v1h1l-1-1zm-35 1l-1 1 1 1h1l-1-2zm162 2c-3 0 2 4 7 6l15 9h1c0-1-4-5-7-5l-5-3-11-8zm-170 0v4l3 13 2 2-1-3-1-3v-5a93 93 0 0 1-3-8zm49 0c-1 0-1 2 1 4 2 3 3 3 5 3 3-1 3-2 1-4l-2-2h-3l-2-1zm-26 4c-2 0 0 4 3 7l2 2-5-9zm-7 0v4c1-1 2-2 0-4zm80 3h1l5 5c1 2 0 2-2 0l-4-5zm77 4h-1v3l10 5 20 10c4 3 4 1-1-3a82 82 0 0 0-28-15zm-141 1l-1 2c-2 1-2 3 0 3h2c1 1 1-3-1-4v-1zm-19 1l2 5 3 4-4-9h-1zm30 1c-1 0-1 2 1 3 1 2 2 3 3 2 2 0 1-2-2-4l-2-1zm-15 4l-1 1 3 3c1 0 2 4 1 6l1 1 5 4 3 1-3-4c-3-3-5-6-5-9-1-2-1-3-3-3h-1zm145 0l-1 1 13 7c12 6 24 13 26 16l5 5c3 3 5 3 7 3l2 1 1 2c2 0 2 1 3 2l2 1c2 0 3 1 3 2 0 2-3 2-8 0-5-3-6-3-6-1h-11c-3-1-3-1-3 1l2 2c3 1 22 21 22 23s-1 1-7-4c-5-4-8-6-5-3 2 3 3 4 1 5-1 1-1 1 1 3l2 3c1 2 2 2 3 2l5 2 7 3 4 3 2 1c2 0 3 0 5 2l4 2 5 3c4 3 5 4 5 2l-12-11-14-11c-6-6 5 4 7 5 3 2 10 7 11 6-5-10-27-23-35-34l4-1 25 7c10 3 10 2 2-4-6-3-6-4-6-2 0 1-3 2-4 1s-1-1 1-2c2 0 2-1-6-6-13-7-14-8-21-14s-15-10-24-14l-17-9zm-139 1v0zm37 4h-1l3 5 2 3 2 2 2 1c0 2 5 7 8 8l4 3c2 5-5 4-8 1l-3-6c-1-1-1-1-1 1v3c0 2 1 5 3 5 2-1 3 0 6 2l10 9c3 3 4 3 4 1v-2l2 2c2 2 3 2 3 0s-3-5-4-4-3-1-4-4l-3-3c-2 0-3-2-2-3 2-1 1-3-2-4l-3-3-7-5-1-1c1-2-1-5-6-8l-4-3zm-22 0c-1 2 1 6 3 7h2l-5-7zm8 2l1 2h4l-5-2zm108 1l10 5 1 1-11-5v-1zm-30 1h1c1 1 0 2-1 1l-1-1h1zm-121 0c0 1 0 2 1 1l-1-1zm9 0l-1 2c-2 5 6 12 9 17l3 5v2 2h4l-5 5c-2 1-1 5 1 2 2-6 4-2 2 2-1 3 4 1 4 0 0-2-3-3 1-5l2 2c0 3 2-1 3-3-5-3-8-6-11-11l-1-2c-3 0-3-1-2-1 1-1 0-1-1-3l-4-6-3-6-1-2zm47 2l-1 1 2 1c2 0 2 0 1-1l-2-1zm-27 1v2c1 2 3 4 6 4l-3-4-3-2zm73 1l2 1-2-1zm-20 1l1 1c-1 0-2 1-2-1h1zm82 0l8 3v1l-8-4zm-21 1h3l2 1c2 2 1 2-3 0l-2-1zm-102 0v1 2c1 3 2 3 2 0 0-2-1-3-2-3zm-3 3l-1 1 2 1v-1l-1-1zm116 0l2 1v1l-2-1v-1zm-129 2h-1l2 4c1 2 3 3 2 4 0 2 1 3 4 5l2 1a68 68 0 0 0-9-14zm135 1h0c-1-1-1 0 0 0zm-113 0v2c0 2-1 3-3 0l-2-1 7 8c4 1 8 6 10 10l3 3c4 1 5 2 4 3-1 3-2 4 1 6 4 2 5 2 4-1v-4l-1-2c-2-1-2-2-2-3-2-3-5-5-6-9l-3-1c-3-1-7-4-6-5 0-1-4-6-6-6zm125 1h0c-1 0 0 0 0 0zm-8 0l6 2 6 2 9 3 7 2 2 1c1 2 1 1-10-2l-14-5-6-2v-1zm13 1l2 1v1l-2-1v-1zm-81 3l1 1v-1h-1zm10 5l4 3h3l-2-2c-2 0-3-2-5-1zm-15 1l1 2 2 3 1 3 3 4 4 3c-1 1 0 2 1 0h3l2 1-4-5-3-3-3-3-4-3zm-48 0c-2 0-2 1-1 2 2 2 2 3 0 3s-4 1-4 3l1-1c1-1 3 1 5 1l6 3 6 5 2 1 1 1-6-7-7-8c-1-2-1-3-3-3zm62 3v1h2l-2-1zm3 1l1 2v1c-1-1-1 0-1 2s2 4 6 5l2 2 3 2 9 3 1 1h2l2 1c1-1-1-5-2-5l-4-4-4-5h-3l-12-5zm-34 2c-2 0 2 5 8 9 5 3 5 5 0 2-4-1-9-2-8 0l8 4 3 4c-2 0-3 3-1 5l4 6c-1 1-1 7 1 7 1 1 4 1 5 4l1 3c3 5 1 0 3-3l1-3c-1-1 0-2 1-3 2-1 1-4-1-9l-1-3 3 2 3 4c0 3 2 4 2 3 1-1-1-8-3-10-1-2-2-2-4-1-4 0-4 0-3-1l3-1c3 1 1 0 0-2-3-3-4-4-6-4l-8-5c-7-6-9-8-11-8zm52 1v2l2 2c0 1 3 4 4 3 1 0 6 4 6 6s4 0 5-1v2 2l3 2 3 1v2l-3 1 1-2h-5l2 3 4 2 3 1c1 1 1 2 3 0l4-3c2 0 2-1 2-2l8-1 7 1c6 1 18 4 19 16 1 1 1 2 3 2l13 7c2 2 4 2 7 3l2 1v-3l-2-3v2c0 2 0 2-6-3-6-3-6-3-3-4s1-3-2-3c-4 0-5 0-7-3-1-2 0-2 3-1 5 2 4-1-1-5-3-2-7-3-10-6-8-6-12-7-13-7-2 1-2 2-1 3l1 1-3-1-4-2-4-2-4-3-5-3c-4-1-5-2-6-1l4 3 5 4c0 2-1 2-6-1-5-2-6-2-6 0s-3 2-4 0l-4-4c-6-4-7-4-8-3l-4-2-3-3zm52 0l-1 1h3l-2-1zm-145 2l-1 1 2 3c2 3 2 4-1 8-2 1-2 3-2 5l7 14c-1 5-6 11-7 12-20 1-14 25-20 35-1 9 5 10 6 15v2l-1 1 3 1-1 5c-2 4-2 6 0 4 1-1 2-1 2 2l-1 3c0 2 4 1 6-1 2-3 3-1 3 1 12 4 10-1 12-4 2-1 7-5 4-5-1 1-2 0-1-2 6 0 4-5 8-8h2l-1 4c-5 6 2 0 3-1l1-3c0-4 0-4 4-6l4-2 1 1c6 1 11-6 15-9l11-6c2-2 4-2 6-2 3-1 7 1 8-2 5 1 5 0 8-1 1 2 5-6 7-7v-4h3c2 1 4 0 4-4l1-6c1-2 1-2-2-1-4 0-6-2-5-6v-6l2 2 2 2h14l11 3h4l12 2 13 3c9 2 18 4 27 8l11 3-6-3-10-4-3-2c-6-2-11-6-17-6l-4-2c-1-2-2-2-4-2-4 0-6-1-6-2 0-2-2-3-7-3l-7 1-2 2-3 1c-2 1-8-3-8-5 0-3-3-3-5 0-2 1-2 2-5 1l-3-1h-6l-3 1-2-1-1-2h-6c0 2 1 3 3 3 1 0 1 1-1 3l-2 3 3 2c1 0 3 4 1 6v3l-1 6v5c1 1 1 1-2 2l-5 1c-2 1-2 2-3 1l-2-1c-2-1-2-1-5 1-7 5-27 16-29 15l-6 4c-5 4-11 7-13 7l-2 2c-1 2-1 2-3 2-2-1-4 1-3 4l-1 2c-1 0-2 1-1 2l-1 1c-2 0-2 1-2 3-1 5-5 6-7 2l-2-2c-2 0-5-3-4-4l2 1h5l2-2c-1-1 5-8 8-9l17-10 6-6 1-4c1-2 2-9 1-10-1 0-4 5-3 6 0 2-1 3-3 2-3-2 2-13 8-17 4-3 4-3 4-1s0 2 2 2l2 2 1 2v3l2 4 2 2 4-2c3-2 3-3 3-4l-1-11v-1c-1-1-1 1-2 3l-2 4v3c0 2-1 4-2 3l-1-3v-2c-2 0-4-3-4-5 0-3 1-5 2-5s2 0 2 3 0 4 1 3l1-6c-2 0 1-6 4-5 2-1 3-2 1-2v-3c-2 0-5 3-5 5l-6 3c-3 3-3 3-2 1v-2l-10 6-5 1-4 1-7 3 1-1c2-1 2-2-1-3l-4-2h-2c-1 3-3 2-3-2l1-4h4l-1-1-1-2 1-2 1-1 2-2v4 2c1 3 6 8 6 6l-1-3-1-4c-1-3 1-4 5-3l3-1c1-2 3-2 5 0h3l2-1h11l3-2c2-3 3-3 3 0l1 1c2 0 1-4-1-6l-2-3-11-9c-5-2-8-2-8-1l-2 2v3c1 2 0 2-4 2-3 0-4 0-5-2-2-2-3-1-2 2l-2 7-1-5c-1-6-1-6-4-8-3-1-4-1-2 1 1 2 0 3-2 2v-5l4 1 3 1c1-1 0-3-3-3-2-1-2-1-1-2 2-1 1-3 0-3l-3-3-4-3zm7 107c2-1 1-1 0 0zm-9-90zm13-16v2s1 1 2-1l-2-1zm4 4l-1 1 2 1c2 1 3 1 2-1l-3-1zm124 3v1l1 1-1-2zm-114 1l-1 1 1 1v-2zm50 0c-2 0 1 5 3 4 0-2-2-4-3-4zm88 1h-1l2 1-1-1zm-1 0zm-120 1l1 2 1 1c0-2-2-3-2-3zm-26 1h-1l1 1 1-1h-1zm152 2h-1 1zm-7 0c-1 0 0 2 4 6 5 5 6 5 1-1l-5-5zm-89 1v2l3 1-3-3zm-41 0c2 0 3 1 4 3v3l-1 3-2 1c-1-1-2-1-2 1l1 1c2 0 2 1 1 2h-11c-4-1-4-1-4 1s-2 2-3 0l1-3 1-2c-1-2 1-3 3-2l5 1h3l1-4c1-5 1-5 3-5zm71 1l-1 1h2l-1-1zm-104 1zm90 2v1l1-1h-1zm-82 0l1 2c-1 1 0 2 2 4 3 2 3 3 1 5l-2 1c-2 0-4-5-3-6l-1-3c-1-1 0-3 2-3zm70 0v5h1l3-2-4-3zm29 0h-1c-2 1-2 2 0 3l3 1h3l-5-4zm-11 2l-1 1 2 3c2 3 3 4 6 2 2-2 2-2-1-3l-4-1-2-2zm-51 1l1 2c1 2 1 2-2 5-3 2-3 2-5 1l-2-1h-2l4-3 3-2 3-2zm43 2c-1 0-2 3 0 3l2-2-2-1zm101 5l2 2c-2 0-3-1-2-2zm-62 3l1 1h-2l1-1zm-83 2l-1 1c1 1 2 1 2-1h-1zm26 0v2c1 0 2-1 0-2zm63 1h1c0 2 0 2-1 1v-1zm-96 2l-2 2-1 3 2-1 2-2-1-2zm49 2l1 4v3l1 1-2 1c-2 0-2-1-2-3l2-6zm96 1c0 1 0 2 2 1l-2-1zm-125 0l-1 1c-1 1 0 1 1 2v5l1 2 1-1 3-3-1-3-4-3zm-24 2h-4l-4 1h1c-1 2 1 2 5 0zm43 1l-1 1-2 2c0 2 2 1 3-1v-2zm115 3c-2 0 3 4 2 1l-2-1zm4 2v1l4 3 22 15 10 5 5 2c1-2 8 4 10 5 4 1 6 4 9 5 2 0-2-3-7-6-8-4-13-9-21-14l-18-13c-3-1-5-3-7-2l2 4-6-4-3-1zm-200 1l-1 5c-2 3-1 3 2 3l4 1c0 2 3 1 5-3 2-3 5-5 7-4s1 2-1 3l-4 3-4 5-3 4c-1 5-1 6-4 6l-4 1-4-3c0-2 2-6 4-6 2-1 4 1 4 3l1 1 1-4 1-2-9 1c-2 1-3 1-3-3l1-4 1-2c2 1 5-2 5-3v-2zm94 1h3l-4 2c-4 3-5 3-5 1 0-1 3-3 6-3zm132 0l1 1c3 2 2 3 0 3l-1 1 7 6a217 217 0 0 1 39 30l12 11 5 4 5 4-5-8c-4-4-8-10-13-13l-9-7a258 258 0 0 0-41-32zm-249 1zm93 1l-3 4c-1 4-1 4-3 3l-2 1v1l-2 2h2l6-4c3-2 3-3 3-5l-1-2zm-28 1c-2 0-4 3-4 4l3 1c2 0 2 1 2 3l1 4v2l-1 2c0 2 1 1 4 0l3-2-2-3c-2-2-4-4-4-7l-2-4zm172 2s2 0 3 2l8 4 4 4c0 1-1 1-3-1l-5-3-8-6h1zm-19 0c-3 0-3 0 3 2 8 3 10 3 3-1l-6-1zm-170 9v1l1 2-6 1-7 1c-3 2-3 2-3 0-1-1 0-2 2-4l3-3 5-4c2 0 5 4 5 6zm61-3c1 1 0 1-1 2-1 2-2 2-2 1-1-1-1-1 1-2l2-1zm-10 3v1l-1 1h-1l1-2h1zm-19 2h2c0-2-1-1-2 0zm158-1v1c0 1 10 8 12 8 4 1 9 6 14 8l4 2c0-1-4-4-17-11l-13-8zm-160 2l-4 2h2l2-2zm-22 4l-1 1-1-1h2zm6-1v2l2 1-1-2-1-1zm-16 4c1 0 2 0 2 3l-1 4-1-2c0-2-2-2-5-2-2 0-2-1-2-2 2-3 4-2 7-1zm19 0l-1 1v1c1 0 3-1 2-2h-1zm-46 1h2c4 0 5 1 4 2-2 3-9 1-9-1l3-1zm-2 4c1 0 2 1 1 3 0 2-2 3-3 1-1-1-1-3 1-4h1zm10 7v6c0 2-1 2-1 0s-2-3-3-1l-2-1c-1-1-1-2 2-3l4-1zm269 10l1 1 4 2-5-3zm-265 11l3 1-2 1-2-1 1-1z"/>
</svg>
