<svg xmlns="http://www.w3.org/2000/svg" fill-rule="evenodd" stroke-linejoin="round" stroke-miterlimit="1.41" clip-rule="evenodd" viewBox="0 0 128 128">
  <path fill="#1c171b" fill-rule="nonzero" d="M22.12 12.1h-.31a18.46 18.46 0 0 0-6.96 2.52c-1.26.63-2.84 1.26-3.79 2.53-.63.31-1.26 1.58-1.58 2.21 0 .63.95 0 1.9-1.26l3.16-2.22c2.53-1.58 5.06-2.84 7.9-3.16.95-.31.63-.63-.32-.63zm2.53 1.25h-.31c0 .32.31.64.63 0h-.32zm4.74.64h-.63c0 .31.63.63.95.31l.32.63h2.52c0-.31-.63-.63-1.58-.63l-.94-.31h-.64zm-3.47 0h-.32c.32.31.32.63.63 0h-.31zm-3.48.63l-.32.31.95.32-.63-.63zm-3.48.63l-.31.32h.63l-.32-.32zm15.49.63l.31 1.27c.64.31.64.31-.63.95-1.26.31-1.58.63-.94.63.31.63.31 1.26 1.26.95l1.26.31c.32.32.32.63-.63.63l-1.9-.31-3.47-.63c-.95 0-1.58.31-1.27.94h1.9l1.58.64 1.9.31h.63c.31-.31 2.21 0 2.21.32.32.31.32.63 1.27.63 1.26 0 .94-.32.63-1.26h1.26l.63.94c1.27.95 1.27.95 1.58.32 0-.32 0-.63-.63-.95l-1.9-1.9c-1.26-1.26-1.26-1.57-1.26-.94l-.63.31c-.63-.31-1.9 0-1.26-.94.63-.64.31-1.27-.64-1.9l-1.26-.32zm-1.58 0c-.32 0-.63 0-.63.63-.32.64-.64.64-.95.32-.63-.63-3.48-.95-4.43-.63h-.94c-.32-.32-.95.31-.95.63.63 0 1.58-.63 1.9.32l1.26.31h1.58c1.26-.31 1.58 2.22 1.9 1.27 0-.95 1.9-.32 1.9-1.58l-.64-1.27zm-4.74.63c.31 0 .63.32 0 .32v-.32zm-6 0h-.32l-.32.64.63-.32v-.31zm2.2 1.9v.32c0 .63.32.63.64.63l.95.32.63-.32h.63l.32-.32-1.27-.31a7.91 7.91 0 0 1-1.9-.32zm-1.26 0l-1.58.63-1.58.32c-.63.32 0 .95.32 1.58.31-.63.63-1.26 1.26-1.26.95 0 1.9-.64 1.9-.95l-.32-.32zm11.38.32h.63l-.63.31v-.31zm-26.23.63l-.32.95.32.63.31-.32.32-.31c.32-.32 0-.63-.32-.63l-.31-.32zm30.34.63v.32c0 .63-.95.63-1.27.31 0-.31.95-.94 1.27-.63zm-27.18 0v.32h.31l-.31-.32zm13.9.32c-.63.31-2.2.31-.63.63 1.58.32 1.9.63 2.53 1.26l.95.64.31.31h-2.52c-2.53-.95-4.43-.63-5.06.63-.63.95-.32 1.58.63 2.53.63.63.63.63 1.9.63 1.26 0 2.53-.63 2.84-1.58.63-.94.95-1.26 1.27-.63l.31.63c.63-.31 2.22-.63 1.27-1.58-.64-.63.95-.31 1.58 0 .63.32.63.64.31.64-.63-.32-1.26 0-1.26.31l-.32.63c-.63.32-.63.32-.31.95l.63.32c.63-.32 2.21-.63 2.53-.32l.63.32c.32 0 .32-.32-.32-.95-.94-1.26-.94-1.58 0-.95.64.63 3.16.95 4.11.32.95 0 1.27.31 1.58 1.58-1.26-.32-1.9-.63-2.84 0l.95.31 1.58.64h.94c.64-.32.64-.64 0-1.27l-.31-.94c.63-.64 1.26-.32 1.26.31l1.9 1.9c1.26.31 1.26.31 1.26-.32.32-.63 0-1.26-.31-.63-.32.63-.64.31-1.27-.95-.31-.63-.95-1.26-.95-2.21v-.63c-.63.31-.63 2.52-1.58.94 0-.63-.63-.94-.63 0 0 .32-.31.95-.63.32 0-.63-.63-.63-2.53-.63-.95.31-1.26 0-1.58-.32l-.63-.31-5.06-1.27v-.63c.32-.63.32-.63-.31-.63l-.95.31-.95-.31h-.32zm-7.58.31l-.63.32c0 .63-.63 1.26-.32 1.58l1.58-1.9h-.63zm-12.01 0h-.32c.32.32.32.64.64 0h-.32zm16.43.32l-1.26.63.95-.31.63-.32h-.32zm-11.69.32l-.32.31c0 .63-1.26 1.58-1.58.63H3.16C.95 22.52 0 22.84 0 23.47l5.06 1.58 3.47.95c1.9.94 2.53 1.26 2.85.94l.95.32c.31.95.31.63.94 0 .32-.63.32-.63.95-.63h.95c.63-.63-.95-1.58-1.58-1.9-1.58-.63-2.21-1.58-1.26-1.9.63-.31.63-.63.31-.94-.31-.32-.95 0-.95.63 0 .32-.31.95-.94.95v-1.9l-.32-.31zm3.8.63c-.32 0-1.59 1.58-.32.95.63-.32.94 0 .31-1.27v.32zm6 .63h-.32c-.63.32-.95 1.9-.95 2.21v2.53l-1.9-.95c0-.63-.62-.63-.94-.31-.32.63 1.9 1.9 3.16 1.9.95 0 1.58 1.26 2.53 1.26 1.26.31 1.58.63 1.58.95 0 .63-.63.94-.95.31l-1.26-.31c-.64-.64-1.27-.64-1.58 0-.32.31-.64 0-.64-.32l-1.26-.95c-.32-.95-.95-.95-.95 0 .32.95.32.95.95.95.63 0 .63.63 1.26.95l.95.63c.32.63.63.63 3.8.95h4.42l-3.16-.95c-.63 0-.95-.63-.95-1.58v-.95l.95.95c0 .63.31.63.63.63v-.95c-.63-.31-.32-.63.95-.63l1.26-.32-.95-.63c-.31-.63-.31-.63-1.58 0l-2.2.63c-.96.32-1.27 0-1.9-.63-.95-1.26-1.27-3.47-.95-5.05v-.32zm-4.11 0l-.32.32-.31 1.26c0 .95.95-.32.95-.95l-.32-.63zm-10.43 0l.95.63v.32l-1.58-.32.63-.63zm16.75.63c.63 0 .95.32.95.95H21.8c-.32-.32 0-.63.31-.95h.32zm-13.9 0l.63.32 1.9.63 1.57.63-.63.32c-1.58 0-2.53-.32-3.16-.95H7.9c-.63 0-.63-.32 0-.63l.63-.32zm33.81.32l-.32.31c-.63 0-.94.32-.31.64l.63.63.32.63c.63-.31 1.26.32 1.26.95l.32.32c.94-.32.31-2.22-.95-3.16l-.95-.32zM27.5 26l-.32.31c-.63.63-.63.63-.32.95.95.63 1.9-.32 1.27-.95L27.5 26zm-19.28.94l-.32.32c-.32.32 0 .63.95 1.26l1.26 1.9c1.38 3.79 2.75 7.58 4.11 11.38.63.63.63 1.26.63 3.8 0 4.1.95 9.16 1.9 13.9.95 2.84 3.16 6 5.06 8.85l6 7.27c3.8 2.84-1.26-1.27-1.58-2.53-6.32-6.32-9.16-16.44-10.43-26.23l-.31-4.75c-.32 0-.64-.63-.64-1.58a36.24 36.24 0 0 0-3.47-9.8l-.95-1.57-1.26-1.27-.95-.63v-.32zm36.66.32l-.32.32c0 .63-.95 0-1.26.63-.32.63-2.21-.32-.95.95.63.63.63.95.63 1.58-.31.63-.95.31-1.58.95 0 .31.95 1.26 1.9 1.26.63 0-.32-.95.63-1.26.63 0 .95-.32.95-.64.31-.31.63-.31.63.32-.32.63.32 1.9 1.26 3.16l1.27 1.58.63.63c1.58.95 1.58.32.32-1.26l-.95-1.27-.32-.63c-.63-.63-.95-1.9-1.26-2.84l-.32-1.58-1.26-1.9zm-8.22.32c0 .31.63.63.63 0h-.63zm-6.32 0c-.95 0-.95.63 0 .63l2.53.63c1.9 0-1.58-1.26-2.53-1.26zm5.69 0l-.63.63c-.95.63-.63 1.58.95 2.21.63-.31-.32-1.58-.32-2.21v-.63zm4.1.31c-.62 0-1.26.32-.94.63h.95c.31-.31.95-.31.31-.63h-.31zm4.12.95c.31 0-.32 2.85-.95 1.9l.95-1.9zm-6.32.32v.31l1.9 1.9c.3-.63.3-.95-.64-1.26l-1.26-.95zm3.16 0c-.64.63 0 2.53 1.26 1.58.32-.32-.95-1.58-1.26-1.58zm-12.01.31c-.64 0-.95 1.27.31.64v-.32l-.31-.32zm-1.9.32l-.32.32h.64l-.32-.32zm3.8 0c-.64 0-.96.32-.96.63h.95v-.63zm-10.44.63v.63c-.63 0-.63-.63 0-.63zm14.22 0l-.94 1.27-.32 1.26 1.58 1.26c.95.95.95 1.27 1.58.95.32-.31.32-.63-.31-.95l-.32-.94c.63-.64 2.53 0 3.48.31.94 0 1.9 1.58 1.9 2.21-.32.64 0 .32.3 0 .96-.94 1.27 0 2.22.32l.63.32c.63 0 .32-.95 0-1.58-.63-.64.63.31.32-.95 0-.63 0-.95-.63-.95l-.32.95c0 1.26-.32 1.58-1.26.63l-1.58-.63-.32-.32c.32-.31.32-.63-.32-.63l-2.52-1.58c-.64-.63-.95-.32-.95.32 0 .63-.95 1.26-1.58.94-.64 0-.32-.63 0-.63v-1.26l-.64-.32zm-5.68.95V32l.31-.31-.31-.32zm1.58.32l-.63.31s.94.32.94-.31h-.31zm-1.27.94l-.63.32c-.63.32-.63 1.58 0 1.58v-.32c-.63-.63 0-.94.63-.31l.95.31v.32c0 .63-.31.63-.63.32l-.32-.32-.63 1.58c0 .63-.63.63-.95 0l-.95-.32-.63-.31c0-.32 0-.63.63-.63l.95-.32-.31-.32h-.95l-1.27-.31c-.63 0-.63 0-.31.31v.64l.95 1.26 1.26.63h.95c.31.63.31.63.95.32l.95-.32.31-.31.63-1.27.32-.95-.95-.94-.95-.64zm12.33.32h-.32.32zm-20.23 0l.32.63c.63.32.95 1.9 1.58 1.27.31-.32 0-.95-.63-.95-.32-.32-.64-.95-1.27-.95zm-3.8.32c-.3.31 0 .94.64.63l-.63-.63zm20.55.63h-.31c.31.63.94.31.94 1.26-.31.95.95 1.9 2.22 1.27l-.64-.32c-.63-.32-.63-.63-.63-.95 0-.63 0-.95-.63-.95l-.95-.31zm7.27 0v.31h.32l-.32-.31zm-11.06.31l-1.26 1.27-.64 1.58-.31 1.58v.95c.94.31-.64.63-1.27.63-.31.31.32 1.26.95 1.58 1.27.31 1.58.31.95-.32-.63-.63-.63-.63.63-.95.95 0 .95 0 .95-.94 0-.64-.32-.64-.63-.64-.32-.31-1.27-.94-.95-1.26h.95c.94-.32 1.26-.32 1.58.32l1.26.63.95.31c0 .32.95 1.27 1.26.95.32-.31-.63-1.26-1.58-1.9l-1.26-.63-.32-.31-.94-.63c-.64-.32-.64-.32-.32-1.27v-.95zm15.8.32c-.63 0-.31.32.63.95l1.9 1.26c.95.63 1.58.63 1.26.32-.94-.95-2.2-1.9-3.79-2.53zm-12.64.32v.63l-.95.31c-.95 0-.95.32-.31.95.63.32 1.26 0 1.58-.63v-.95l-.32-.31zm9.48.94l-.63.95.32 1.27c.63.94.31 0 .31-.95v-1.27zm-13.27.64l.31.31c0 .32-.63.63-.63 0-.31 0 0-.63.32-.31zm-12.96 0l-.32.31h.32v-.31zm21.8 0l-.94.94.95.32.63.32c0 .63.32.63.63.63.63 0 .32-.95-.31-1.27l-.64-.63-.31-.31zm8.86.63l.63 1.58 3.8 3.47c1.57.64 2.84 2.22 4.42 3.48l3.16 2.85c.31.63 1.26.94 1.58 1.9l1.26.94.63.32-3.16-4.11-3.16-3.16-1.58-1.9s-.63-.63-.63 0c.32.63-.95-.63-1.58-.95-.95-.31-3.8-2.53-3.8-3.16l-1.57-1.26zm-12.96 0l.63.63.63 1.9c.32.63.63.94.63.31-.31-.31 0-.63.32-.94.32-.32.32-.32-.95-1.27l-1.26-.63zm-12.96 0l-.32.63h.64v-.63h-.32zm-2.84.63v.95c.31-.32.63-.63 0-.95zm22.75.63c-.63 0-.63.32 0 .95.63.95.95.63.63-.32l-.63-.63zm4.11.63l-.32.32c-.31.63-.94-.32-1.58 0-.63.32-.63.63 0 .95h2.22c1.58 0 1.9-.32.31-.95l-.63-.32zm-24.02.32v.32h.32l-.32-.32zm9.8.32c0 .31.31.63.31 0h-.31zm20.86.31v.32l.31.32v-.32l-.31-.32zm-28.13.32l-.32.32h.63l-.31-.32zm8.53 0c-.63 0-1.26.95-.95 1.26.32.64.64.64.64 0l.63-.31c.63 0 .31-.64 0-.95h-.32zm7.9.32c0 .31.64 1.58 1.58 1.58.32 0 .32-.64-.31-.95l-1.27-.64zm4.74.31l-.63.32c-.31.31 0 .63.63.63 1.27.32 1.27.32.32.95-1.58.63-1.26 1.26 0 .95h2.53c.63-.32 1.26 0 2.53 1.58l2.2 1.9 1.9 1.89c.64 0 2.22.63 2.85 1.58l.95.63c.63 0 2.84 1.58 2.84 2.21l-.31.32c-.32 0-.64 0-.32.32.32.63.32.94-.63.94l-.63.32h.63c.63 0 .95.32.31.63-.31.32-.63.32-1.58-.31l-.63-1.27c.32-.63-1.58-2.53-2.53-2.84-.63 0-.94-.63-.94-.95l-1.27-.63-1.26-.63a2.87 2.87 0 0 0-2.22-.95l-.94-.64-.95-.31c-.95-.32-1.9-.63-1.58-.95l-1.9-1.9-.95.32c-.94.63-.94.63-.94 0s0-.63.63-.95c.63 0 .63-.31 0-.31-.63-.64-1.9 0-1.58.31l-.63.32-.64.31h-.63l-.31-.31-.32-.63c-.32 0-.63.63-.32.94v.32l-.31.63h2.84c0 .32.63.63 1.58.63 1.58 0 2.85.32 2.21.64l.32.63 4.42 2.21-.94.32c0 .63.94.63 1.26 1.26l3.8 2.85c1.26.94 1.89.94 1.89.31l-.32-.31-.94-.64-1.27-.94c-1.58-.95-3.16-2.22-2.84-2.53.31-.32.95 0 1.9.63l1.57 1.26.32.32 1.9.63.94 1.9 1.58 1.58 1.9 1.26.95.95c.31.63.31.63.95.63.31-.31.31-.31.31.32l.95.63 2.21 1.26 2.53.95 1.9.95c1.26.32 1.58.32.63-1.26-.63-1.27-1.26-1.58-1.9-.64h-1.26a5.94 5.94 0 0 1-3.16-1.26c0-.63 0-.63.95-.32.95.64 1.26.64 3.16.32 1.26-.63 1.9-.95.95-.95l-.95-.95-2.53-2.84-2.21-2.53c-.63-.95-.95-.95-.95 0 .32.95 1.9 2.85 4.42 5.06 1.27.95 1.27.95.95 1.26-.63.63-1.58.63-1.9 0-.31-.63 0-.95.32-.31h.63l-.63-.64-1.26-.63-.63-.95-1.27-1.58-1.26-1.58c-.32-1.26-2.22-3.16-3.16-3.47l-1.9-1.27c-.63-.31-.95-.95-1.26-.63-.64 0-2.85-2.21-2.85-2.84 0-.64-.63-1.58-.95-1.58-.63 0-3.16-1.27-3.47-1.9l-.32-.63h-2.84l-.64-.32zm-21.8 0v.95h.31l-.31-.95zm20.22.32c-.63 0-.63.63 0 .95l.32.31c.32-.63 0-1.26-.32-1.26zm-9.48.31l-1.26.64h.95c.94 0 1.26 0 .94-.32l-.63-.32zm-7.58 0l-.32.32c-.63.32-1.58-.63-.95.95l.64.63.63-1.9zm-6.64 0h-.32v.32h.32v-.32zm26.86.32l2.22.95h-.95c-.95-.32-1.58-.63-1.27-.95zm-7.58.32l-.32.31c.32.32.64 0 .64-.31l-.32-.32v.32zm-16.75 0c0 .31 0 .63.31.31l-.31-.31zm13.9.63l-.31.31.31.32.32-.32-.32-.31zM27.5 44h-.32c0 .32.32.63.63.32L27.5 44zm27.8.32l1.9 1.58-1.26-.95c-.95-.32-.95-.63-.63-.63zm-14.21.31v.64c.31.63.63.63.63 0l-.63-.64zm11.69 0l-.32.32.32.63c.63.32.95 0 .63-.31 0-.64-.31-.64-.63-.64zm-25.92.32h-.31v.63c.31.63.31.63.31 0v-.63zm24.66.95l-.64.31h.64c.94 0 .94 0 .31-.31h-.31zm2.2 0v.31l.64.64h1.58l-1.58-.95h-.63zm-10.1.31v.32h.63l-.63-.32zm4.1.32c-.31 0-.31.32.32.32l.32-.32h-.64zm-24.96.63l-.32 1.27v2.84c.63 1.27.63 1.27.32-.63v-3.48zm4.42.32c-.63.31-.32.95.63 1.9l.95.63-.95-1.9-.63-.63zm19.28 0l-.32.31.32.32.32-.32-.32-.31zm2.21.95h-.63c-.63.31-.32.63.63.95l.95.94 2.53 3.48h.31c.64 0 .95.95.64 1.26-.32.64-1.58-.63-1.9-.94l-.63-.32h-.95c-.32.32-.32.32-1.26-.32l-1.27-1.58c-.31-.63-.63-.63-.95-.63l-.63-.31-2.84-1.27c-.32.32-.95 0-1.58-.31l-1.58-.64.31.64.95.63 1.27.63c.63.63.94.95 1.58.95l.63.63.95.63c.63.32.63.63.63.95v.95l.63-.32h.95c1.58.32 1.9.95 1.9 1.58l.31.63h.32l.94.95c1.27.32 1.9 1.27 1.27 1.58-.32 0-3.16-1.58-4.11-2.84-.63-.63-.95-1.27-1.9-.63-.63.63-.63.63 0 .94.95.64 2.22.64 2.53 1.9-.31.95-1.58.32-3.16-1.26L43.3 55.7l-1.26-.95-.95-.63-.95-.32c-.63 0 0 .32.95.95.63.31.95.63.95 1.26 0 .95 2.2 1.27 3.16 1.58.31.32.31.63-.32.95-1.58 0-.32 1.58-2.84-.95-1.9-2.21-2.85-2.53-2.85-1.58l2.21 2.21-1.26.32-.95.32c0 .31 1.26.94 2.53.63l1.26.31c.32.32.64.64 1.58.64l1.58.31h.64l3.16.32c.94.63.94.63.63 0 0-1.27 3.16-.32 4.1 0l.32-.63.95-.32 2.21.63.95-.31c.32 0 .95-.32.63-.95l-.94-.95c-.95-1.9-.32-1.58 1.26.32.32.63.63.63.95.63.63-.32 1.58.63.63 1.26l-.63.63a19.33 19.33 0 0 0 5.37 4.75l3.8 1.9c.94 0 1.57.94 2.52.62.63-.31.95.32 0 .95l-1.58.32-1.58-.32a69.8 69.8 0 0 1-9.16-6.95c-.64-.63-.95-1.58-1.9-.63-.95.63.32.95.95 1.9l2.84 2.52c.32.63 3.16 2.21 3.48 2.21.95.32 1.58.95 2.53.95.63 0 .95 0 .63.32 0 .95-2.53.31-4.74-1.27-1.9-.94-5.7-4.42-6-5.05 0-.64-2.22-1.27-2.53-.95-.64.32-.64.32.31 1.58l2.53 3.16-3.48-3.8c0-.3-.31-.63-2.21-1.26l-1.26.32-.95.63c-.95.32-.95.32-1.9-.63-1.26-.63-1.9-.95-1.9-.32h-.94c-.95 0-.95 0 0 .95.63.63 1.58 1.26 1.58.63 0-.31.31-.31.95.32l1.26.95c1.26.94 2.53 1.9 4.1 2.2l-1.26-1.26c-1.58-1.26-2.2-1.9-1.58-1.9l1.9 1.27c1.9 1.9 2.85 2.21 3.8 2.21l1.57.64c1.58.63 1.58.63 1.27 0 0-.64 0-.64.95 0l1.9.95c.94 0 2.2 1.26 1.89 1.58-.63.31-3.8 0-5.06-.64l-2.53-.63c-2.21-.31-3.47-.63-5.05-1.9l-1.9-.94a33.04 33.04 0 0 1-7.27-4.11c-.95-.95-.63-.95.95 0l1.26.63c.32 0 0-.63-.94-1.26-.64-.95-1.27-.95-1.27-.64l-1.58-.31c-.95-.63-1.58-.32-.63.31.63.32.95 1.58.95 2.22 0 .94 1.58 2.2 5.05 4.42 4.11 2.53 4.43 2.85 5.7 4.11l1.26 1.26v-.94c0-.95.63 0 .94.94 0 .32 0 .64-.63.64s-.63 0 0 .63l1.27 1.26c.63.95.63.95.63.32l.32-.95-.64-.95c-1.58-.95 1.9-.31 2.53.64h.63l-1.26-1.27c-.32.32-1.58-.95-1.58-1.58 0-.32.63-.32 1.58.63l1.9.63c1.9.32 3.79.95 5.37 2.22l1.26.63.95.32v-.32c-.95-.63.32-.32 1.58.32.95.63 1.58.94 1.9.63.63 0 3.16.63 3.47 1.26.32.63.95.63.95 0 0-.31.32-.31 1.27.63l1.9 1.27.62.63c-1.58-.32-2.52-.95-.63.32.95.94 1.9.94 1.27 0v-1.58l.94-.32c1.59 0 1.27-.32-1.58-1.26-4.4-1.36-8.72-2.94-12.95-4.75a626.84 626.84 0 0 0 21.17 5.7 263.42 263.42 0 0 1-15.8-5.38h1.58c-4.1-1.26-6.95-2.53-6-2.84l.94.31 5.06 1.58L77.75 75c8.22 2.84 12.32 4.42 13.59 4.42.31 0 .31-.32-.32-.95-1.26-1.26-1.26-1.58-4.74-3.47l-3.8-2.85-1.57-.63-.95-.63-2.21-1.27c-.63 0-.95-.31-.95-.63l-1.26-.32c-1.58 0-6-2.52-10.43-6l-1.9-1.9c0-.63.63-.31 1.9.63a23.06 23.06 0 0 0 9.48 5.06l.95.63.31-.94c0-.95 0-.95-.95-1.27a71.4 71.4 0 0 1-9.16-4.74c.31-.63-.95-1.58-.95-1.26v.94c1.26 1.58-1.9-.94-2.84-2.84l-1.27-.32c-.95.32-.95 0-1.58-.63-.31-.31-.63-.63-.95-.31l-.63-.32c-.63-.32-1.26-.32-1.58-.95l-.95-.63-1.58-1.26-.63-.64-1.58-1.58-2.53-1.9zm-29.7.31v.32l-.32.32.31.31v-.95zm15.16 0l.32.95c.63.63.95.63 1.26.32.64-.32.32-.63-.63-.95l-.95-.32zm-5.37 1.9l-.32.32v.63c.64.31.64 0 .32-.63v-.32zm31.6.63l.64.63c.63.64 1.26.64 1.26.32l-1.9-.95zm-24.01 0v.63l.31.64v-.95l-.31-.32zm-6.96.95l.64.63.94.32c0-.32-.94-.95-1.58-.95zm9.48 0c-.31 0-.63.32 0 .63l.64-.31-.64-.32zm-14.22.32l.32 1.58v1.58l.31 1.26.64.63-.95-4.42-.32-.63zm7.59.31v.32l-.63.63.31.63c.95.63 1.58.63.95-.31l-.32-.95-.31-.32zm10.11 0l-.31.32h.63l-.32-.32zm20.54.32l-.31.63 1.58.32c0-.64-.63-.95-1.27-.95zm-25.6.31h-.31c-.32.32 1.26 1.9 1.9 1.27 0-.63-.95-1.27-1.59-1.27zm6.64.64v.31c.32.95 1.27-.31 0-.31zm-7.9.31l-.63.32c-.32 0-.63.63-.32.95.32.31.32.31.95-.32v-.95zm18.33.95c.32 0 1.58 1.26 1.58 1.9l.32.63c1.58 1.26-3.48-.63-2.22-2.53h.32zm-21.5.32c-.3 0 0 .94.64 1.58v-.95l-.63-.63zm26.87 0v.31h.32l-.32-.31zm-22.44.31h-.31c-.32.32 0 .32.63.95l1.26.63v-.31l-1.58-1.27zm28.76 0c.64 0 1.27.63 1.27 1.27 0 .94 0 .94-.95.31-.63-.63-.95-1.58-.32-1.58zM36.66 57.3l-.95.94h.32c.63 0 1.26-.94.95-.94h-.32zm-5.37 0l-.63.31c-.63.63.63 0 .63.95 0 .63 2.21 3.16 2.53 3.16l1.26.63c.95.32.95.64.95.95.32 1.9 2.53 2.85 3.48 4.43h.94c.95 0 2.22.63 2.85 1.58.63.63.63.31.32-.64-.64-.63-3.48-4.74-4.11-4.1-.32.63-1.9-.32-2.53-1.58l-.63-.64c-.64 0-3.8-3.47-3.8-3.79 0-.32 0-.63-.31-.32l-.63-.31-.32-.63zm2.84.94v.32c0 .32 0 .63.32.32l-.32-.32v-.32zm19.91.32l.95.63h-.63l-.32-.63zm-25.28.32c-.63 0-.32.63.32 1.58.63.94 1.26 1.26.95.31l-1.27-1.9zm9.8.63l-.32.31-.63.64c-.63 0-.63.31-.32.63l.64.31.94-.94-.31-.95zm-2.53 1.26v.32h.32l-.32-.32zm-11.06.32l-.32.31.32.32h.31l-.31-.63zm51.2.63c-.95 0 .63 1.27 2.21 1.9l4.74 2.84h.32c0-.31-1.27-1.58-2.21-1.58l-1.59-.95-3.47-2.53v.32zm-53.73 0v1.27l.95 4.1.63.64-.32-.95-.31-.95v-1.58c-.36-.83-.67-1.67-.95-2.53zm15.49 0c-.32 0-.32.63.31 1.27.63.94.95.94 1.58.94.95-.31.95-.63.32-1.26l-.63-.63h-.95l-.63-.32zm-8.22 1.27c-.63 0 0 1.26.95 2.2l.63.64-1.58-2.84zm-2.21 0v1.26c.31-.32.63-.63 0-1.26zm25.28.94h.32l1.58 1.58c.31.64 0 .64-.64 0l-1.26-1.58zm24.34 1.27h-.32v.95l9.48 4.74c1.27.94 1.27.31-.31-.95a25.9 25.9 0 0 0-8.85-4.74zm-44.57.31l-.31.64c-.63.31-.63.94 0 .94h.63c.32.32.32-.94-.32-1.26v-.32zm-6 .32l.63 1.58.95 1.26-1.27-2.84h-.31zm9.48.32c-.32 0-.32.63.32.94.31.64.63.95.94.64.64 0 .32-.64-.63-1.27l-.63-.31zm-4.74 1.26l-.32.32.95.94c.32 0 .63 1.27.32 1.9l.31.32 1.58 1.26.95.32-.95-1.27c-.94-.95-1.58-1.9-1.58-2.84-.31-.63-.31-.95-.94-.95h-.32zm45.83 0l-.32.32 4.1 2.2c3.8 1.9 7.6 4.12 8.23 5.07l1.58 1.58c.94.94 1.58.94 2.2.94l.64.32.32.63c.63 0 .63.32.95.63l.63.32c.63 0 .95.32.95.63 0 .63-.95.63-2.53 0-1.58-.95-1.9-.95-1.9-.31h-3.48c-.94-.32-.94-.32-.94.31l.63.63c.95.32 6.95 6.64 6.95 7.27 0 .64-.31.32-2.21-1.26-1.58-1.27-2.53-1.9-1.58-.95.63.95.95 1.26.31 1.58-.31.32-.31.32.32.95l.63.95c.32.63.64.63.95.63l1.58.63 2.21.95 1.27.95.63.31c.63 0 .95 0 1.58.64l1.26.63 1.58.95c1.27.94 1.58 1.26 1.58.63l-3.79-3.48-4.42-3.47c-1.9-1.9 1.58 1.26 2.21 1.58.95.63 3.16 2.2 3.48 1.9-1.58-3.17-8.54-7.28-11.07-10.75l1.27-.32 7.9 2.21c3.16.95 3.16.63.63-1.26-1.9-.95-1.9-1.27-1.9-.63 0 .31-.94.63-1.26.31-.32-.31-.32-.31.32-.63.63 0 .63-.32-1.9-1.9-4.1-2.2-4.42-2.52-6.64-4.42-2.2-1.9-4.74-3.16-7.58-4.43l-5.37-2.84zm-32.24 1.58h-.32l.95 1.58.63.95.64.63.63.32c0 .63 1.58 2.2 2.53 2.53l1.26.94c.63 1.58-1.58 1.27-2.53.32l-.95-1.9c-.31-.31-.31-.31-.31.32v.95c0 .63.31 1.58.95 1.58.63-.32.94 0 1.9.63l3.15 2.84c.95.95 1.27.95 1.27.32v-.63l.63.63c.63.63.95.63.95 0s-.95-1.58-1.27-1.26c-.31.31-.95-.32-1.26-1.27l-.95-.95c-.63 0-.95-.63-.63-.94.63-.32.31-.95-.63-1.27l-.95-.95-2.21-1.58-.32-.31c.32-.64-.32-1.58-1.9-2.53l-1.26-.95zm-6.95 0c-.32.63.31 1.9.94 2.21h.64l-1.58-2.21zm2.52.63l.32.63h1.27l-1.59-.63zm34.14.32l3.16 1.58.31.31-3.47-1.58v-.31zm-9.48.31h.31c.32.32 0 .64-.31.32l-.32-.32h.32zm-38.25 0c0 .32 0 .64.32.32l-.32-.32zm2.85 0l-.32.64c-.63 1.58 1.9 3.79 2.85 5.37l.95 1.58v1.26h1.26l-1.58 1.58c-.63.32-.32 1.58.32.64.63-1.9 1.26-.64.63.63-.32.95 1.26.31 1.26 0 0-.63-.95-.95.32-1.58l.63.63c0 .95.63-.32.95-.95a9.18 9.18 0 0 1-3.48-3.47l-.31-.64c-.95 0-.95-.31-.64-.31.32-.32 0-.32-.31-.95l-1.27-1.9-.94-1.9-.32-.63zm14.85.64l-.31.31.63.32c.63 0 .63 0 .32-.32l-.64-.31zm-8.53.31v.63c.32.64.95 1.27 1.9 1.27l-.95-1.27-.95-.63zm23.07.32l.63.31-.63-.31zm-6.32.31l.32.32c-.32 0-.64.32-.64-.32h.32zm25.92 0l2.53.95v.32l-2.53-1.27zm-6.64.32H73l.63.32c.63.63.32.63-.95 0l-.63-.32zm-32.24 0v.95c.32.95.63.95.63 0 0-.63-.31-.95-.63-.95zm-.95.95l-.31.31.63.32v-.32l-.32-.31zm36.67 0l.63.31v.32l-.63-.32v-.31zm-40.77.63h-.32l.63 1.27c.32.63.95.94.63 1.26 0 .63.32.95 1.27 1.58l.63.32a21.5 21.5 0 0 0-2.84-4.43zm42.66.32c-.31-.32-.31 0 0 0zm-35.71 0v.63c0 .63-.32.95-.95 0l-.63-.32 2.21 2.53c1.27.32 2.53 1.9 3.16 3.16l.95.95c1.26.32 1.58.63 1.26.95-.31.95-.63 1.26.32 1.9 1.26.63 1.58.63 1.26-.32v-1.27l-.31-.63c-.63-.31-.63-.63-.63-.95-.64-.94-1.58-1.58-1.9-2.84l-.95-.32c-.95-.31-2.21-1.26-1.9-1.58 0-.31-1.26-1.9-1.9-1.9zm39.5.31c-.31 0 0 0 0 0zm-2.52 0l6.63 2.22 2.22.63.63.31c.31.64.31.32-3.16-.63l-4.43-1.58-1.9-.63v-.32zm4.1.32l.64.32v.31L82.8 75v-.32zm-25.6.95l.32.31v-.31h-.31zm3.17 1.58l1.26.95h.95l-.63-.64c-.64 0-.95-.63-1.58-.31zm-4.74.31l.31.64.63.94.32.95.95 1.27 1.26.94c-.31.32 0 .64.32 0h.95l.63.32-1.27-1.58-.94-.95-.95-.95-1.27-.94-.94-.64zm-15.18 0c-.63 0-.63.32-.31.64.63.63.63.94 0 .94s-1.27.32-1.27.95l.32-.31c.32-.32.95.31 1.58.31l1.9.95 1.9 1.58.63.32.31.31-1.9-2.21-2.2-2.53c-.32-.63-.32-.95-.96-.95zm19.6.95v.32h.63l-.63-.32zm.95.32l.31.63v.32c-.31-.32-.31 0-.31.63s.63 1.26 1.9 1.58l.63.63.94.63 2.85.95.32.32h.63l.63.31c.32-.31-.32-1.58-.63-1.58L67 81.94l-1.26-1.58h-.95l-3.8-1.58zm-10.75.63c-.63 0 .63 1.58 2.53 2.84 1.58.95 1.58 1.58 0 .64-1.26-.32-2.84-.64-2.53 0l2.53 1.26.95 1.26c-.63 0-.95.95-.32 1.58l1.27 1.9c-.32.32-.32 2.21.31 2.21.32.32 1.27.32 1.58 1.27l.32.95c.95 1.58.32 0 .95-.95l.31-.95c-.31-.32 0-.63.32-.95.63-.31.32-1.26-.32-2.84l-.31-.95.95.63.94 1.27c0 .94.64 1.26.64.94.31-.31-.32-2.53-.95-3.16-.32-.63-.63-.63-1.27-.31-1.26 0-1.26 0-.94-.32l.94-.32c.95.32.32 0 0-.63-.94-.95-1.26-1.26-1.9-1.26l-2.52-1.58c-2.21-1.9-2.85-2.53-3.48-2.53zm16.44.32v.63l.63.63c0 .32.95 1.26 1.26.95.32 0 1.9 1.26 1.9 1.9 0 .63 1.26 0 1.58-.32v1.26l.95.63.95.32v.63l-.95.32.31-.63h-1.58l.64.94 1.26.64.95.31c.31.32.31.64.95 0L76.8 87c.63 0 .63-.31.63-.63l2.53-.31 2.21.31c1.9.32 5.7 1.27 6 5.06.32.32.32.63.96.63l4.1 2.21c.64.64 1.27.64 2.22.95l.63.32v-.95l-.63-.95v.63c0 .64 0 .64-1.9-.94-1.9-.95-1.9-.95-.95-1.27.95-.31.32-.95-.63-.95-1.26 0-1.58 0-2.21-.94-.32-.64 0-.64.95-.32 1.58.63 1.26-.32-.32-1.58-.95-.63-2.21-.95-3.16-1.9-2.53-1.9-3.8-2.21-4.1-2.21-.64.32-.64.63-.33.95l.32.31-.95-.31-1.26-.63-1.27-.64-1.26-.94-1.58-.95c-1.26-.32-1.58-.63-1.9-.32l1.27.95 1.58 1.26c0 .64-.32.64-1.9-.31-1.58-.63-1.9-.63-1.9 0s-.94.63-1.26 0l-1.26-1.27C69.53 81 69.2 81 68.9 81.31l-1.27-.64-.94-.94zm16.43 0l-.31.31h.94l-.63-.31zm-45.83.63l-.31.31.63.95c.63.95.63 1.27-.32 2.53-.63.32-.63.95-.63 1.58l2.21 4.43c-.31 1.58-1.9 3.47-2.2 3.79-6.33.31-4.43 7.9-6.33 11.06-.31 2.84 1.58 3.16 1.9 4.74v.63l-.32.32.95.31-.32 1.58c-.63 1.27-.63 1.9 0 1.27.32-.32.64-.32.64.63l-.32.95c0 .63 1.26.32 1.9-.32.63-.94.94-.31.94.32 3.8 1.26 3.16-.32 3.8-1.26.63-.32 2.2-1.59 1.26-1.59-.32.32-.63 0-.32-.63 1.9 0 1.27-1.58 2.53-2.53h.64l-.32 1.27c-1.58 1.9.63 0 .95-.32l.31-.95c0-1.26 0-1.26 1.27-1.9l1.26-.62.32.31c1.9.32 3.47-1.9 4.74-2.84l3.48-1.9c.63-.63 1.26-.63 1.9-.63.94-.32 2.2.32 2.52-.63 1.58.31 1.58 0 2.53-.32.31.63 1.58-1.9 2.21-2.21v-1.27h.95c.63.32 1.26 0 1.26-1.26l.32-1.9c.32-.63.32-.63-.63-.31-1.27 0-1.9-.63-1.58-1.9v-1.9l1.26 1.27h4.42l3.48.95h1.27l3.79.63 4.1.95c2.85.63 5.7 1.26 8.54 2.53l3.48.94-1.9-.94-3.16-1.27-.95-.63c-1.9-.63-3.47-1.9-5.37-1.9l-1.26-.63c-.32-.63-.64-.63-1.27-.63-1.26 0-1.9-.32-1.9-.63 0-.63-.63-.95-2.2-.95l-2.22.32-.63.63-.95.31c-.63.32-2.53-.94-2.53-1.58 0-.94-.95-.94-1.58 0-.63.32-.63.64-1.58.32l-.95-.32h-1.9l-.94.32-.63-.32-.32-.63h-1.9c0 .63.32.95.95.95.32 0 .32.32-.31.95l-.64.95.95.63c.32 0 .95 1.26.32 1.9v.94l-.32 1.9v1.58c.32.31.32.31-.63.63l-1.58.32c-.63.31-.63.63-.95.31l-.63-.31c-.63-.32-.63-.32-1.58.31-2.21 1.58-8.53 5.06-9.17 4.74l-1.9 1.27c-1.57 1.26-3.47 2.21-4.1 2.21l-.63.63c-.32.63-.32.63-.95.63-.63-.31-1.27.32-.95 1.27l-.32.63c-.31 0-.63.32-.31.63l-.32.32c-.63 0-.63.31-.63.95-.32 1.58-1.58 1.9-2.21.63l-.63-.63c-.64 0-1.59-.95-1.27-1.27l.63.32h1.58l.64-.63c-.32-.32 1.58-2.53 2.52-2.85l5.38-3.16 1.9-1.9.3-1.26c.32-.63.64-2.84.32-3.16-.31 0-1.26 1.58-.94 1.9 0 .63-.32.95-.95.63-.95-.63.63-4.11 2.53-5.37 1.26-.95 1.26-.95 1.26-.32l1.27 1.26.31.64V99l.63 1.27.64.63 1.26-.63c.95-.63.95-.95.95-1.27l-.32-3.47v-.32c-.31-.31-.31.32-.63.95l-.63 1.26v.95c0 .63-.32 1.27-.63.95l-.32-.95v-.63c-.63 0-1.26-.95-1.26-1.58 0-.95.31-1.58.63-1.58.31 0 .63 0 .63.95s0 1.26.32.95l.31-1.9c-.63 0 .32-1.9 1.27-1.58.63-.32.94-.63.31-.63v-.95c-.63 0-1.58.95-1.58 1.58l-1.9.95c-.94.95-.94.95-.63.31v-.63l-3.16 1.9-1.58.31-1.26.32-2.21.95.31-.32c.64-.31.64-.63-.31-.95l-1.27-.63h-.63c-.32.95-.95.63-.95-.63l.32-1.26h1.26l-.31-.32-.32-.63.32-.63.31-.32.63-.63v1.9c.32.94 1.9 2.52 1.9 1.89l-.31-.95-.32-1.26c-.32-.95.32-1.27 1.58-.95l.95-.32c.31-.63.94-.63 1.58 0h.94l.64-.31h3.47l.95-.63c.63-.95.95-.95.95 0l.32.31c.63 0 .31-1.26-.32-1.9l-.63-.94-3.48-2.85c-1.58-.63-2.53-.63-2.53-.31l-.63.63v.95c.32.63 0 .63-1.26.63-.95 0-1.27 0-1.58-.63-.64-.64-.95-.32-.64.63l-.63 2.21-.31-1.58c-.32-1.9-.32-1.9-1.27-2.53-.95-.31-1.26-.31-.63.32.32.63 0 .95-.63.63v-1.58l1.26.32.95.31c.32-.31 0-.95-.95-.95-.63-.31-.63-.31-.31-.63.63-.31.31-.95 0-.95l-.95-.94-1.27-.95zm2.22 33.82c.63-.32.31-.32 0 0zm1.26-33.5v.63s.32.31.63-.32l-.63-.32zm1.27 1.26l-.32.31.63.32c.63.32.95.32.63-.32l-.94-.31zm39.19.95v.31l.31.32-.31-.63zm-36.03.31l-.32.32.32.31v-.63zm15.8 0c-.63 0 .31 1.58.95 1.27 0-.64-.64-1.27-.95-1.27zm27.81.32h-.32l.64.31-.32-.31zm-38.24.31l.31.64.32.31c0-.63-.63-.95-.63-.95zm-8.22.32h-.31l.31.32.32-.32h-.32zm48.04.63h-.32.32zm-2.21 0c-.32 0 0 .63 1.26 1.9 1.58 1.58 1.9 1.58.32-.32l-1.58-1.58zm-28.13.32v.63l.95.32-.95-.95zm-12.96 0c.63 0 .95.31 1.27.95v.94l-.32.95-.63.32c-.32-.32-.63-.32-.63.32l.31.31c.63 0 .63.32.32.63h-3.48c-1.26-.31-1.26-.31-1.26.32s-.63.63-.95 0l.32-.95.31-.63c-.31-.63.32-.95.95-.63l1.58.31h.95l.31-1.26c.32-1.58.32-1.58.95-1.58zm22.44.31l-.31.32h.63l-.32-.32zm-4.42.95v.32l.31-.32h-.31zm-25.92 0l.32.63c-.32.32 0 .64.63 1.27.95.63.95.95.31 1.58l-.63.32c-.63 0-1.26-1.58-.95-1.9l-.31-.95c-.32-.32 0-.95.63-.95zm22.12 0v1.58h.32l.95-.63-1.27-.95zm9.17 0h-.32c-.63.32-.63.63 0 .95l.95.32h.95l-1.58-1.27zM67 87l-.31.32.63.95c.63.95.95 1.26 1.9.63.63-.63.63-.63-.32-.95l-1.27-.31-.63-.64zm-16.12.32l.32.63c.32.64.32.64-.63 1.58-.95.64-.95.64-1.58.32l-.63-.32h-.64l1.27-.94.95-.64.94-.63zm13.6.63c-.32 0-.64.95 0 .95l.63-.63-.64-.32zm31.92 1.58l.63.64c-.63 0-.95-.32-.63-.64zm-19.6.95l.32.32h-.64l.32-.32zm-26.23.63l-.32.32c.32.32.63.32.63-.32h-.31zm8.22 0v.64c.31 0 .63-.32 0-.64zm19.9.32h.32c0 .63 0 .63-.31.32v-.32zm-30.33.63l-.64.63-.31.95.63-.31.63-.64-.31-.63zm15.48.63l.32 1.27v.95l.31.31-.63.32c-.63 0-.63-.32-.63-.95l.63-1.9zm30.34.32c0 .32 0 .63.64.32l-.64-.32zm-39.5 0l-.32.32c-.32.31 0 .31.32.63v1.58l.31.63.32-.32.95-.94-.32-.95-1.26-.95zm-7.59.63h-1.26l-1.27.32h.32c-.32.63.32.63 1.58 0l.63-.32zm13.6.32l-.32.31-.64.64c0 .63.64.31.95-.32v-.63zm36.34.95c-.63 0 .95 1.26.63.31l-.63-.31zm1.26.63v.31l1.27.95 6.95 4.74 3.16 1.58 1.58.64c.32-.64 2.53 1.26 3.16 1.58 1.26.31 1.9 1.26 2.84 1.58.64 0-.63-.95-2.2-1.9-2.54-1.26-4.12-2.84-6.64-4.42l-5.7-4.11c-.94-.32-1.57-.95-2.2-.64l.63 1.27-1.9-1.27-.95-.31zm-63.2.31l-.32 1.58c-.64.95-.32.95.63.95l1.26.32c0 .63.95.31 1.58-.95.63-.95 1.58-1.58 2.21-1.26.64.31.32.63-.31.94l-1.27.95-1.26 1.58-.95 1.27c-.31 1.58-.31 1.9-1.26 1.9l-1.27.3-1.26-.94c0-.63.63-1.9 1.26-1.9.64-.31 1.27.32 1.27.95l.31.32.32-1.26.32-.64-2.85.32c-.63.32-.95.32-.95-.95l.32-1.26.32-.64c.63.32 1.58-.63 1.58-.94v-.64h.31zm29.7.32h.95l-1.27.63c-1.26.95-1.58.95-1.58.32 0-.32.95-.95 1.9-.95zm41.72 0l.32.32c.94.63.63.94 0 .94l-.32.32 2.21 1.9a68.57 68.57 0 0 1 12.33 9.48l3.79 3.47 3.16 2.53-1.58-2.53c-1.26-1.26-2.53-3.16-4.1-4.1l-2.85-2.22a81.55 81.55 0 0 0-12.96-10.11zm-49.3.63l-.95 1.27c-.32 1.26-.32 1.26-.95.94l-.63.32v.32l-.64.63h.64l1.9-1.27c.94-.63.94-.94.94-1.58l-.31-.63zm-8.85.32c-.64 0-1.27.95-1.27 1.26l.95.32c.63 0 .63.31.63.95l.32 1.26v.63l-.32.64c0 .63.32.31 1.27 0l.94-.64-.63-.94c-.63-.64-1.26-1.27-1.26-2.22l-.63-1.26zm54.36.63s.63 0 .94.63l2.53 1.27 1.27 1.26c0 .32-.32.32-.95-.31l-1.58-.95-2.53-1.9h.32zm-6 0c-.96 0-.96 0 .94.63 2.53.95 3.16.95.95-.31l-1.9-.32zm-53.74 2.85v.31l.32.63-1.9.32-2.21.32c-.95.63-.95.63-.95 0-.31-.32 0-.64.63-1.27l.95-.95 1.58-1.26c.64 0 1.58 1.26 1.58 1.9zm19.28-.95c.32.31 0 .31-.31.63-.32.63-.64.63-.64.32-.31-.32-.31-.32.32-.64l.63-.31zm-3.16.95v.31l-.31.32h-.32l.32-.63h.31zm-6 .63h.63c0-.63-.32-.32-.63 0zm49.93-.32v.32c0 .31 3.16 2.53 3.8 2.53 1.26.31 2.84 1.9 4.42 2.52l1.26.64c0-.32-1.26-1.27-5.37-3.48l-4.1-2.53zm-50.57.63l-1.26.64h.63l.63-.64zm-6.95 1.27l-.31.31-.32-.31h.63zm1.9-.32v.63l.63.32-.32-.63-.31-.32zm-5.06 1.27c.32 0 .63 0 .63.94l-.31 1.27-.32-.63c0-.64-.63-.64-1.58-.64-.63 0-.63-.31-.63-.63.63-.95 1.26-.63 2.21-.31zm6 0l-.31.31v.32c.32 0 .95-.32.63-.63h-.31zm-14.53.31h.63c1.26 0 1.58.32 1.26.63-.63.95-2.84.32-2.84-.31l.95-.32zm-.63 1.27c.31 0 .63.31.31.94 0 .64-.63.95-.95.32-.31-.32-.31-.95.32-1.26h.32zm3.16 2.2v1.9c0 .64-.32.64-.32 0 0-.63-.63-.94-.95-.31l-.63-.32c-.32-.31-.32-.63.63-.95l1.27-.31zm85.01 3.17l.32.31 1.26.64-1.58-.95zm-83.75 3.48l.95.31-.63.32-.64-.32.32-.31z"/>
</svg>
